<svg id="Layer_1" data-name="Layer 1" xmlns="http://www.w3.org/2000/svg" viewBox="0 0 100 100"><defs><style>.cls-1{fill:#fca46a;}</style></defs><path class="cls-1" d="M94,50.53a.76.76,0,0,1,0-.15c-.24-4.07,5-7.17,4.21-11.17s-6.83-4.71-8.52-8.45,1.47-8.37-.91-11.5c-2.51-3.28-8.32-1.2-11.41-4-2.73-2.42-2-7.49-5-9.49C68.59,3.41,63.7,8,59.45,6.8,55.67,5.74,53.74.49,49.82.5,45.69.51,43.73,6.38,39.65,7c-3.51.55-6.87-3.09-10.25-2-4.29,1.35-3.68,8.31-7.46,10.74-3,1.92-7.58.18-10.11,2.68-3.08,3,.23,8.64-1.77,12.47C8.25,34.33,2.8,35,1.86,38.81c-1,3.95,4,7.25,3.78,11.32-.16,2.78-2.7,4.82-3.58,7.46A6.74,6.74,0,0,0,4.43,65c1.73,1.26,4.12,1.72,5.3,3.5,1.58,2.41,0,5.6.26,8.47a7,7,0,0,0,5.63,6.17c1.94.33,4-.17,5.81.68,4,1.93,3.09,8.88,7.1,10.74,3.65,1.7,7.8-2.47,11.72-1.51s5.83,6.63,9.87,6.47c3.51-.15,5.18-4.64,8.43-6,2-.83,4.33-.29,6.45.26,1.74.44,5.32,2.23,6.87.85.91-.81,1.39-2.49,1.93-3.56.67-1.34,1.35-2.68,2-4a7.75,7.75,0,0,1,1.76-2.56c2.64-2.22,7.16-.23,9.89-2.35,3.84-3-.11-9.9,2.79-13.81,1.79-2.4,5.55-2.71,7.17-5.23,1.42-2.2.57-5.18-.84-7.39C95.54,54.06,94.15,52.46,94,50.53ZM3,39.8c-.18-.43.37-1.4.85-1.8,2-1.67,4.08-3.24,6.25-4.92a3.72,3.72,0,0,1,.68-.32l1.77,3.38a19.47,19.47,0,0,0,1.73,3.29l1.45,2.78-2.18,1.6a20.6,20.6,0,0,0-3.68,2.7l-2.69,2c-.29-.39-.56-.79-.82-1.19C5.19,44.85,4,42.35,3,39.8ZM22,17.32l.52,10.42a.9.9,0,0,1-.14.64c-.17.17-.5.11-.73.12-.64.05-1.28.11-1.91.19A31.61,31.61,0,0,0,16,29.4a27.08,27.08,0,0,1-3.87.88c-.09,0-.19,0-.25-.05a.28.28,0,0,1,0-.18c0-3.11,0-6.21,0-9.32A1.09,1.09,0,0,1,12,20a1.06,1.06,0,0,1,.52-.25q4.7-1.3,9.42-2.44ZM49.4,1.69a2.59,2.59,0,0,1,.4-.09L57.56,8a38.14,38.14,0,0,0-2.88,2.78l-4.14,4a1.1,1.1,0,0,1-1.09.31,4.61,4.61,0,0,1-.7-.8A18.52,18.52,0,0,0,42.67,9l-.26-.15-.48-.45c-.17-.28-.1-.58.18-.93Zm28,80.75c-.18-.19-.24-.53-.13-1.09a19.11,19.11,0,0,0-.38-8.83c-.16-.58-.09-.89.25-1l.38-.06h.24A20.1,20.1,0,0,0,86.32,70l1-.16c0,2.94,0,6.06-.06,9.17A1.9,1.9,0,0,1,86,80.29C83.25,81,80.46,81.69,77.38,82.44ZM69.91,93.07a22.78,22.78,0,0,1-9.37-2.13,2.16,2.16,0,0,1,.5-.86,22.06,22.06,0,0,0,3.61-8.76l1.84.51a23.64,23.64,0,0,0,6.77,1.86l1.77.48c-1.43,2.83-2.77,5.54-4.17,8.21A1.37,1.37,0,0,1,69.91,93.07Zm4.16-22.14c1.15,1,1.19,3.3,1.66,5a6.91,6.91,0,0,1,0,1.64c0,4.69-.87,5.37-5.34,4.12-.26-.08-.52-.13-.78-.2A10.94,10.94,0,0,1,65,79.23a3.23,3.23,0,0,1-.53-.58,4,4,0,0,1-.32-.81c-.08-.26-.14-.52-.21-.78a5.84,5.84,0,0,1-.22-.82,17.14,17.14,0,0,1-.1-1.76,10.75,10.75,0,0,1,0-1.39A2.29,2.29,0,0,1,64,71.8c.39-.45,1.06-.34,1.57-.2a1.58,1.58,0,0,0,1.86-1.76c-.08-1.39.64-1.27,1.53-1.13l.2,0,.56.09A13.37,13.37,0,0,1,74.07,70.93ZM12.68,66.65c.15-.48.32-1,.5-1.41.7-1.43,1.39-2.85,2.13-4.23.25-.4.51-.81.78-1.2,1-1.41,3.31-2.18,5.56-2.18A15.15,15.15,0,0,1,25.7,59c-.81,1.12-.86,2.06-.26,2.81A2.14,2.14,0,0,0,27.09,63c.64.14.8.34.72.77-1.24,1.9-2.39,3.7-3.62,5.44a2,2,0,0,1-1.35.76,19.72,19.72,0,0,1-10.23-2A2,2,0,0,1,12.68,66.65Zm1.89-22.09.2-.15a17.52,17.52,0,0,1,1.93-.83c1.66-.26,3.24.57,4.77,1.5a19.47,19.47,0,0,1,2.67,2.35C23.06,49,21.08,50.49,24,51.92a7,7,0,0,1-10.17,2.9c-1.7-1.2-3.24-2.64-5.1-4.26a.89.89,0,0,1,.07-1.25c.22-.27.44-.53.67-.79ZM15.31,39a35.32,35.32,0,0,1-1.75-3.18,15.18,15.18,0,0,1-.68-2,6.83,6.83,0,0,1-.16-1.44,1.32,1.32,0,0,1,.5-.68c3.18-1.4,6.61-2.25,9.93-1.45,1.41.33,2.43,2.54,3.47,4a11.09,11.09,0,0,1,1,2.63,1.12,1.12,0,0,1-.25.22c-2.39.66-2.8,1.73-1.55,4.05l-.4.16c-2.07.35-4,.72-6,1h-.18a4.53,4.53,0,0,1-1.9-.83,18,18,0,0,1-2-2.32ZM37.19,78.12a17.65,17.65,0,0,1,1.39-1.49,16.34,16.34,0,0,1,2-1.42,2.33,2.33,0,0,1,1.09-.48,5.42,5.42,0,0,0,1.11,1.16,1.78,1.78,0,0,0,2.72.17c.47-.37.78-.47,1.1-.24.74,2,1.47,3.92,2.12,5.87a1.86,1.86,0,0,1-.33,1.3,15.84,15.84,0,0,1-7,6.58,2,2,0,0,1-1.85-.44,68.4,68.4,0,0,1-3.13-7.2A5.14,5.14,0,0,1,37.19,78.12Zm9.52-4.06c-.36-.4-.72-.8-1.1-1.18A2.84,2.84,0,0,0,44.14,72a2.83,2.83,0,0,0-1.63.4,41.81,41.81,0,0,0-5.29,3c.13-2.48.13-5.32-1.69-7-2-1.84-5.13-1.38-7.79-.8a18.72,18.72,0,0,0,1.57-6.28,2.9,2.9,0,0,0-.3-1.84,3.22,3.22,0,0,0-1.43-1L22.17,56a14.54,14.54,0,0,0,3.37-3.12,5,5,0,0,0,.87-4.37c-.7-2.08-3-3.1-4.38-4.83,2.08-1.07,4.79-1.07,6.29-2.85a5.05,5.05,0,0,0,.87-4.26,15.15,15.15,0,0,0-1.75-4.13,24.2,24.2,0,0,1,4.15.4,5.17,5.17,0,0,0,4-.91c1.9-1.65,1.26-4.69,1.88-7.13a15.19,15.19,0,0,0,4.33,2.43,5.24,5.24,0,0,0,4.76-.64c1.55-1.23,1.94-3.44,3.22-5,1,2.61,2.48,5.58,5.23,6.1,2.55.48,4.88-1.42,6.79-3.19a26.12,26.12,0,0,1,.52,4.25,4.86,4.86,0,0,0,1.91,3.67c2.1,1.31,4.83-.3,7.28,0a46.83,46.83,0,0,0-1.33,5.74,4.23,4.23,0,0,0,0,1.84A3.88,3.88,0,0,0,73,42.29a8.72,8.72,0,0,1,3.5,1.38c-1.27,2.22-4,3.86-3.89,6.41s2.69,4,3.63,6.18c-1.75,1.62-5.17,1.35-5.95,3.61a4.55,4.55,0,0,0-.09,1.91c.21,2,.49,4,.83,6a6.28,6.28,0,0,0-7.2.41,6.46,6.46,0,0,0-2.19,4.71c-.23,3-1.68,1.53-3.51.38a4.69,4.69,0,0,0-4-.8c-2.31.82-2.73,4-4.66,5.52A24.4,24.4,0,0,0,46.71,74.06ZM69.9,6.89a1.39,1.39,0,0,1,.75.18,1.87,1.87,0,0,1,.57.76l3.63,7.33a1.14,1.14,0,0,1,.17.55c0,.56-.68.5-1.06.53-.6.06-1.21.15-1.8.25a24.16,24.16,0,0,0-3.47.88,21.29,21.29,0,0,1-3.93,1.16,26.77,26.77,0,0,0-1.28-4.2,14.51,14.51,0,0,0-1.1-2.28,12.25,12.25,0,0,1-1.5-2.56.56.56,0,0,1,0-.49.66.66,0,0,1,.22-.15,22.29,22.29,0,0,1,8.54-2ZM83.21,29.22c-1.51-.14-3-.47-4.53-.49l-1.63-.32a1.51,1.51,0,0,1,0-1,20.24,20.24,0,0,0,.36-8.45,2.34,2.34,0,0,1,0-1c3.27-.12,6.31.85,9.33,1.87a1.06,1.06,0,0,1,.48.82c0,3.25,0,6.51,0,9.69l-.11.06L85.34,30A6.69,6.69,0,0,0,83.21,29.22ZM88,34a1.52,1.52,0,0,1,.67-1c2.43,2,5,4,7.48,6.1a1,1,0,0,1,.06.93l-2,4.32a31.71,31.71,0,0,1-2.09,4.26,5,5,0,0,0-1.33-1.41A34.62,34.62,0,0,0,86.1,44c-1-.57-3.11-1.47-1.82-2.89A17.6,17.6,0,0,0,88,34Zm-2.61-2.29c.46.14,1.13,1.22,1,1.54a77.51,77.51,0,0,1-3.78,7.37A3.55,3.55,0,0,1,80.1,42.3,14.79,14.79,0,0,1,75,41.57c-.78-.26-1.4-.41-.75-1.52a1.63,1.63,0,0,0-1.08-2.6c-1.6-.31-1.23-1.12-.84-2,.48-1.07,1.06-2.09,1.59-3.14a6,6,0,0,1,.8-1,6.76,6.76,0,0,1,5-.95A45,45,0,0,1,85.41,31.66ZM75.72,19.81c-.17,2.84-.49,5.68-.83,8.51a2,2,0,0,1-.92,1.2,11.64,11.64,0,0,1-6.4,2c-.35,0,0-1.25-.06-1.45a1.78,1.78,0,0,0-1.3-1.51,4.44,4.44,0,0,0-1.2.08,1,1,0,0,1-1.15-.59,4.25,4.25,0,0,1,0-1.51c.11-2.26-.17-4.69,1.65-6.44a2,2,0,0,1,.45-.2c2.53-.78,5.1-1.43,7.67-2C75.12,17.51,75.79,18.5,75.72,19.81Zm-12.87-.87c.71,3-2.32,4.31-4.08,6.09a3.28,3.28,0,0,1-.88.55c-.25-.06-.47-.31-.66-.87A1.46,1.46,0,0,0,55,23.82l-.07.06a6.68,6.68,0,0,0-1.62.61c-.58-.22-.82-1.13-1.14-1.91-.56-1.32-1-2.68-1.55-4,0-.16,0-.31,0-.47a4.29,4.29,0,0,1,1-2.56,45.79,45.79,0,0,1,5.93-5c.41-.31,1.76-.21,1.9.07C60.67,13.32,62.18,16,62.85,18.94ZM50.77,83.4h0a2.92,2.92,0,0,1-.15-1.83,14.48,14.48,0,0,1,1.82-4.84c.3-.49.53-1,1-1a4.51,4.51,0,0,0,1.16.67,1.66,1.66,0,0,0,2.58-.81c.38-.83.73-1,1.26-.71,1.45,1.42,2.88,2.8,4.22,4.26a2.24,2.24,0,0,1,.29,1.73c-.72,3.4-1.84,6.63-4.35,9.19A15.36,15.36,0,0,1,50.77,83.4ZM76.39,53.48c-.7-.68-1.31-1.16-.06-2a1.64,1.64,0,0,0-.07-2.83c-1-.77-.74-1.28,0-1.91a14.35,14.35,0,0,1,4.76-3,5.44,5.44,0,0,1,3.86,1.22c2,1.52,4,3.19,6.42,5.18-2.52,2-4.41,3.61-6.5,5s-3.84,1.53-5.72.57A15.5,15.5,0,0,1,76.39,53.48ZM88.12,66.57A21.73,21.73,0,0,0,84,58.51c-.71-.86-.28-1.14.48-1.45a16.48,16.48,0,0,0,4.2-2.33,9.63,9.63,0,0,0,1.72-1.83c.42-.6.9-1.51,1.75-1.51A10.92,10.92,0,0,1,93,53.3l1.1,2.34c.74,1.59,1.48,3.18,2.2,4.78a1.21,1.21,0,0,1-.4,1c-2.45,2-4.93,3.93-7.42,5.89A1.56,1.56,0,0,1,88.12,66.57ZM40,10.11c.09-.14.19-.29.29-.42a20.57,20.57,0,0,1,8.07,6.84,3,3,0,0,1,.39,2.07,42.71,42.71,0,0,1-1.45,4.21c-.33.9-.63,1.6-1.4,1.56l-.2-.15a2,2,0,0,0-2-.54c-.86.09-1.51,1-2,1.87a3.18,3.18,0,0,1-.85-.42c-3.79-2.16-5.07-5.05-4-8.91A1.18,1.18,0,0,0,37,16a42.07,42.07,0,0,1,2.59-5.27ZM27.21,8.87a3,3,0,0,1,3.83-2c2.66.62,5.3,1.33,7.63,1.92l-4.11,9.78-1.09-.28a19.41,19.41,0,0,0-7.84-2L24.54,16a.68.68,0,0,1-.14-.64C25.31,13.3,26.33,11.11,27.21,8.87Zm-1.37,8.75a59.48,59.48,0,0,1,5.89,1.59c3.05,1,3.93,2.37,4,5.6a14.73,14.73,0,0,1,0,2.66,1.71,1.71,0,0,1-.91,1.1l-.12,0a1.89,1.89,0,0,0-1.89.51c-.52.33-.68,1-.84,2.38a2.74,2.74,0,0,1-.86,0,12,12,0,0,1-2.55-.51c-.53-.18-1-.37-1.52-.57s-1.06-.51-1.58-.8c-.15-.1-.31-.2-.45-.31l-.09-.06a3.16,3.16,0,0,1-.76-1.42,17.63,17.63,0,0,1-.7-6,34.25,34.25,0,0,1,.23-3.45C24,17.58,24.79,17.38,25.84,17.62Zm-19,34.29.29-.49,8,5.7a.93.93,0,0,1,.44.52.87.87,0,0,1-.11.54c-.85,2-1.8,4-2.83,6-.84,1.58-1.52,3.4-3.51,1.94C7.31,64.82,5.6,63.53,3.91,62.2a2.66,2.66,0,0,1-1.13-1.42,2.64,2.64,0,0,1,.32-1.54A76.1,76.1,0,0,1,6.79,51.91ZM22.14,78.07c-.07,1.41-.15,2.88-.23,4.43-3.08-.77-6.17-1.5-9.24-2.34A1.55,1.55,0,0,1,11.8,79c-.06-2.84,0-5.67,0-8.53a1.67,1.67,0,0,1,.35-.56,1.56,1.56,0,0,1,.27-.2l2.12.39a6.36,6.36,0,0,0,1.74.67,30,30,0,0,0,5.16.6l1.08.2c-.06,1.27-.13,2.56-.2,3.89A18.59,18.59,0,0,0,22.14,78.07ZM23.54,81l-.06-.87a33.41,33.41,0,0,1,.72-7.85,5.22,5.22,0,0,1,1.37-1.87,15.57,15.57,0,0,1,2.76-1.31,17.3,17.3,0,0,1,2.25-.4c.31,0,.79-.17,1.07,0s.4.59.46.89a4.5,4.5,0,0,0,.29,1.09,1.79,1.79,0,0,0,1.1.88c.57.16,1.11-.07,1.68,0a.66.66,0,0,1,.4.19,1,1,0,0,1,.16.72c0,.31,0,.62,0,.93,0,.68,0,1.36,0,2a5.81,5.81,0,0,1-4.62,5.66c-1.76.48-3.56.81-5.35,1.2a1.69,1.69,0,0,1-2.12-.85C23.57,81.26,23.55,81.11,23.54,81Zm2.12,2.67a18.11,18.11,0,0,0,8-2.1l.26-.14.66-.17,1.41,3.45A19.08,19.08,0,0,0,37,87.34l1.53,3.73a59.87,59.87,0,0,1-6.06,1.58c-4.31.68-4.36.6-6.32-3.52-.69-1.44-1.22-3-1.83-4.55C24.28,83.88,24.69,83.66,25.66,83.62Zm16.63,7.46a20,20,0,0,0,7.1-6.24l0,0c.71.58,1.45,1.16,2.2,1.75a20.24,20.24,0,0,0,5.31,4.3c.79.87-.12,1.52-.73,2-2.18,1.79-4.43,3.51-6.84,5.39l-7.47-6C41.62,91.88,41.53,91.5,42.29,91.08ZM71.88,63.35c2.67-.84,2.83-1.05,2.12-3.72-.19-.74.16-.89.62-1a19.57,19.57,0,0,1,5.15-.92,3.27,3.27,0,0,1,1.85.77c2.69,2.62,4,6,5.08,9.75-2.33.62-4.39,1.35-6.51,1.7a10.62,10.62,0,0,1-3.39.14C74.36,69.29,72.86,67.14,71.88,63.35Z"/><path class="cls-1" d="M50.26,63.58a24,24,0,0,0,2.6-1.27,23.31,23.31,0,0,0,2.73-1.79c.43-.32.84-.65,1.24-1a27.92,27.92,0,0,0,5.05-5.69c2.36-3.47,3.73-7.3,2.19-11.59,0-.24,0-.49,0-.73s.13-.61.19-.91c.55-3.48-1.25-6.09-4.76-6.69L59,33.85a11.19,11.19,0,0,0-4.39.16c-1.42.37-2.82.81-4.2,1.31a35.25,35.25,0,0,0-7.33,3.57,23,23,0,0,0-5,4.41A19.74,19.74,0,0,0,34.79,49a21.25,21.25,0,0,0-1,3.57,12.22,12.22,0,0,0,.47,6.26,9,9,0,0,0,4.9,5.46,11.2,11.2,0,0,0,5.56.91,16.58,16.58,0,0,0,4.21-1.12Q49.6,63.87,50.26,63.58ZM36.85,61.07a8.12,8.12,0,0,1-1-3,13.1,13.1,0,0,1,.68-5.61,26.66,26.66,0,0,1,5.9-9.88c3.71-4,8.66-7.22,14.12-7.67a7.18,7.18,0,0,1,4.41.8,3.47,3.47,0,0,1,1.63,3.89,6.35,6.35,0,0,0-4.86-2.68A12.76,12.76,0,0,0,52.11,38C46.82,40,42.15,44,40,49.31a10.34,10.34,0,0,0-.83,4.8,5.71,5.71,0,0,0,2.29,4.18,4,4,0,0,0,4.6,0,2.52,2.52,0,0,0,1-2.58,1.55,1.55,0,0,0-3.06.44,2.77,2.77,0,0,0,.66,1.61,2.8,2.8,0,0,1-3.3-1.31,5.59,5.59,0,0,1-.49-3.76,17,17,0,0,1,3.41-7.23A20.85,20.85,0,0,1,51.82,39a10.21,10.21,0,0,1,4.68-1.09,6.12,6.12,0,0,1,4.34,1.87,4.42,4.42,0,0,1,.91,4.51c-.9,2.21-3.66,3.15-4.7,5.29a4.08,4.08,0,0,0,2.73-1.44,9.1,9.1,0,0,1,2.41-2c-.1.05-.24.73-.29.85l-.33.88c-.23.58-.48,1.16-.75,1.72A31.86,31.86,0,0,1,59,52.86a30.7,30.7,0,0,1-4.72,5.81,33.18,33.18,0,0,1-2.86,2.44,11,11,0,0,1-1.54,1c-.64.32-1.3.64-2,.93a15.26,15.26,0,0,1-3.54,1.09,7.79,7.79,0,0,1-5.92-1.21A6.29,6.29,0,0,1,36.85,61.07Z"/></svg>